HIERARCHY
ROOT Hips
{
	OFFSET -3.958830 18.904000 13.208200
	CHANNELS 6 Xposition Yposition Zposition Zrotation Yrotation Xrotation 
	JOINT LHipJoint
	{
		OFFSET 0.000000 0.000000 0.000000
		CHANNELS 3 Zrotation Yrotation Xrotation
		JOINT LeftUpLeg
		{
			OFFSET 1.800000 -1.400000 0.085000
			CHANNELS 3 Zrotation Yrotation Xrotation
			JOINT LeftLeg
			{
				OFFSET 2.215000 -6.000000 0.000000
				CHANNELS 3 Zrotation Yrotation Xrotation
				JOINT LeftFoot
				{
					OFFSET 2.500000 -6.900000 0.000000
					CHANNELS 3 Zrotation Yrotation Xrotation
					JOINT LeftToeBase
					{
						OFFSET 0.200000 -0.500000 1.950000
						CHANNELS 3 Zrotation Yrotation Xrotation
						End Site
						{
							OFFSET 0.000000 0.000000 0.000000
						}
					}
				}
			}
		}
	}
	JOINT RHipJoint
	{
		OFFSET 0.000000 0.000000 0.000000
		CHANNELS 3 Zrotation Yrotation Xrotation
		JOINT RightUpLeg
		{
			OFFSET -1.800000 -1.400000 0.085000
			CHANNELS 3 Zrotation Yrotation Xrotation
			JOINT RightLeg
			{
				OFFSET -2.215000 -6.000000 0.000000
				CHANNELS 3 Zrotation Yrotation Xrotation
				JOINT RightFoot
				{
					OFFSET -2.500000 -6.900000 0.000000
					CHANNELS 3 Zrotation Yrotation Xrotation
					JOINT RightToeBase
					{
						OFFSET -0.200000 -0.500000 1.950000
						CHANNELS 3 Zrotation Yrotation Xrotation
						End Site
						{
							OFFSET 0.000000 0.000000 0.000000
						}
					}
				}
			}
		}
	}
	JOINT LowerBack
	{
		OFFSET 0.000000 0.000000 0.000000
		CHANNELS 3 Zrotation Yrotation Xrotation
		JOINT Spine
		{
			OFFSET -0.087000 1.940000 -0.288900
			CHANNELS 3 Zrotation Yrotation Xrotation
			JOINT Spine1
			{
				OFFSET 0.000000 1.950000 0.060000
				CHANNELS 3 Zrotation Yrotation Xrotation
				JOINT Neck
				{
					OFFSET 0.000000 0.000000 0.000000
					CHANNELS 3 Zrotation Yrotation Xrotation
					JOINT Neck1
					{
						OFFSET 0.000000 1.600000 0.340000
						CHANNELS 3 Zrotation Yrotation Xrotation
						JOINT Head
						{
							OFFSET 0.000000 1.667000 -0.240000
							CHANNELS 3 Zrotation Yrotation Xrotation
							End Site
							{
								OFFSET 0.000000 0.000000 0.000000
							}
						}
					}
				}
				JOINT LeftShoulder
				{
					OFFSET 0.000000 0.000000 0.000000
					CHANNELS 3 Zrotation Yrotation Xrotation
					JOINT LeftArm
					{
						OFFSET 2.700000 1.550000 -0.730000
						CHANNELS 3 Zrotation Yrotation Xrotation
						JOINT LeftForeArm
						{
							OFFSET 5.450000 0.000000 0.000000
							CHANNELS 3 Zrotation Yrotation Xrotation
							JOINT LeftHand
							{
								OFFSET 3.450000 0.000000 0.000000
								CHANNELS 3 Zrotation Yrotation Xrotation
								JOINT LeftHandIndex1
								{
									OFFSET 0.750000 0.000000 0.000000
									CHANNELS 3 Zrotation Yrotation Xrotation
									End Site
									{
										OFFSET 0.000000 0.000000 0.000000
									}
								}
							}
						}
					}
				}
				JOINT RightShoulder
				{
					OFFSET 0.000000 0.000000 0.000000
					CHANNELS 3 Zrotation Yrotation Xrotation
					JOINT RightArm
					{
						OFFSET -2.700000 1.550000 -0.730000
						CHANNELS 3 Zrotation Yrotation Xrotation
						JOINT RightForeArm
						{
							OFFSET -5.450000 0.000000 0.000000
							CHANNELS 3 Zrotation Yrotation Xrotation
							JOINT RightHand
							{
								OFFSET -3.450000 0.000000 0.000000
								CHANNELS 3 Zrotation Yrotation Xrotation
								JOINT RightHandIndex1
								{
									OFFSET -0.750000 0.000000 0.000000
									CHANNELS 3 Zrotation Yrotation Xrotation
									End Site
									{
										OFFSET 0.000000 0.000000 0.000000
									}
								}
							}
						}
					}
				}
			}
		}
	}
}
MOTION
Frames: 12
Frame Time: 0.016667
3.923010 16.445060 -4.644690 1.765450 4.872910 0.853145 -15.260279 13.301004 2.486991 1.346363 0.668635 3.404389 -6.710133 9.220322 25.840295 0.020779 6.650170 2.444384 0.387240 -0.021430 0.429870 18.447421 -8.649246 5.013975 5.687245 11.957921 -47.901691 5.288691 -5.933328 31.560933 -0.314369 -3.423391 3.133930 0.022050 0.107660 0.310590 -3.744291 -3.551733 -8.318081 16.840099 -10.737154 18.751810 -7.475016 -8.050439 0.539910 5.532246 -0.398895 -7.924974 -2.075586 2.034159 29.282784 -10.206420 6.005790 -17.410470 -27.696957 -9.664305 1.914448 -45.625675 -7.241888 -2.213986 -33.923405 -16.841077 2.298021 -3.648194 3.086422 0.711670 0.094540 0.082290 0.133520 16.399686 6.999866 5.473005 52.602802 0.095636 -15.412858 27.626183 57.677762 9.095471 1.880891 -1.641764 -0.241900 0.132480 -0.025510 -0.347600 
3.984530 16.279790 -4.527550 3.080950 4.113240 0.180066 -15.292073 13.290705 2.610610 -0.684436 1.146970 4.865648 -6.110685 9.471200 27.932841 0.102311 7.010082 2.341253 0.373520 -0.045330 0.409420 18.427306 -8.640352 4.917063 5.258737 11.407575 -47.972359 4.891415 -5.657575 30.669239 -0.258815 -3.294824 3.179858 0.030170 0.157260 0.314960 -3.670542 -3.633513 -8.300303 15.666652 -10.564684 17.892839 -7.028139 -8.281897 1.518350 5.252010 -0.738143 -8.510649 -2.648222 2.875798 28.753080 -10.031220 6.431450 -15.725590 -27.040578 -11.030108 2.710252 -43.894889 -7.294962 -2.039317 -36.846501 -18.980504 3.267291 -3.670278 3.132603 0.690770 0.133790 0.043480 0.143490 16.360613 8.687877 5.884516 49.912764 0.891495 -14.642244 29.528466 60.741174 10.806625 1.854077 -1.701630 -0.265710 0.142180 -0.009800 -0.344970 
4.038680 16.135620 -4.398390 3.791531 1.946516 -0.620915 -15.312901 13.238333 2.741696 -2.307994 1.763207 6.402874 -6.245160 9.967330 29.369345 0.238574 7.350906 2.252081 0.344500 -0.079610 0.389840 18.423067 -8.565949 4.930599 5.814260 11.712770 -47.623885 4.077576 -5.354308 31.082417 -0.240570 -3.300142 3.196060 0.010230 0.190360 0.311240 -3.615779 -3.682710 -8.371373 15.224790 -10.185070 18.003750 -6.778115 -7.945359 1.721294 5.220174 -1.155207 -9.259283 -3.366004 3.740926 28.759733 -10.150280 7.146550 -14.181830 -27.698238 -12.439907 3.756065 -41.321982 -5.576542 -2.785682 -39.810851 -22.457716 4.685614 -3.658290 3.177274 0.664710 0.157550 0.019140 0.148120 17.070899 10.801126 6.394106 46.146210 1.084287 -14.052772 30.796098 62.364459 12.058929 1.862311 -1.719820 -0.272830 0.144020 -0.003490 -0.335120 
4.096290 16.028570 -4.254240 3.836073 -0.240882 -2.060156 -15.313530 13.247321 2.900209 -3.122447 2.453724 8.760184 -6.699099 10.461975 29.572370 0.355267 7.602956 2.187193 0.295610 -0.146880 0.400490 18.418269 -8.535360 4.895665 6.326251 11.912904 -46.192080 3.929557 -5.467539 32.226714 -0.271549 -3.437403 3.168200 -0.044730 0.168840 0.275680 -3.590801 -3.788508 -8.478434 16.075268 -10.205111 18.967615 -7.185932 -7.653615 1.960622 5.643917 -1.452187 -10.458508 -4.167928 4.504314 30.642477 -11.365290 8.281900 -14.114270 -28.021738 -14.427190 5.089951 -39.283997 -3.730991 -3.815956 -41.582280 -25.633883 5.825679 -3.596859 3.146975 0.701680 0.128400 0.029530 0.119580 16.430064 13.470108 7.297131 44.763493 1.472871 -14.604376 28.499404 63.567887 11.169058 1.867870 -1.655093 -0.296650 0.158750 0.008300 -0.356570 
4.140820 15.962190 -4.111590 3.730748 -3.223361 -3.262942 -15.334222 13.246482 3.024218 -3.789801 2.999274 10.122818 -7.703687 11.158075 29.850874 0.462261 7.857439 2.104336 0.253960 -0.209120 0.417880 18.403893 -8.413641 4.957407 6.649413 12.678046 -45.095806 4.169198 -5.876134 34.853063 -0.369308 -3.855880 3.026295 -0.100280 0.136810 0.269310 -3.517687 -3.974493 -8.637378 16.753961 -9.988392 20.302561 -7.215548 -7.064995 1.926335 6.163005 -1.452110 -11.574214 -4.460632 5.519788 32.987639 -13.002930 9.954280 -14.305740 -28.845306 -16.389274 6.386139 -37.590981 -1.913959 -4.721033 -42.301181 -28.009497 6.528487 -3.543513 3.128454 0.743370 0.101330 0.058050 0.088560 16.162365 16.065059 7.917488 42.766693 2.095726 -15.281403 23.162339 64.032687 8.637700 1.854367 -1.571448 -0.304810 0.153140 0.023960 -0.379710 
4.176750 15.946860 -3.968450 2.446892 -5.833712 -4.232792 -15.318627 13.304780 3.064187 -3.052121 3.018211 11.116900 -8.741159 11.914907 30.362416 0.569850 8.089891 2.007548 0.269050 -0.194990 0.442080 18.411256 -8.346209 4.983268 7.208101 13.402537 -43.000855 5.787142 -6.823537 36.919171 -0.517048 -4.318655 2.870239 -0.129330 0.061050 0.277090 -3.533154 -4.154233 -8.727427 19.477589 -10.528944 21.683123 -8.072371 -6.724003 1.759311 6.873620 -1.477446 -12.752127 -4.909392 6.303282 35.876858 -14.078120 11.003100 -15.487120 -29.879667 -18.486613 7.639458 -36.233801 -0.345734 -5.487897 -42.083786 -28.882429 6.491545 -3.433800 3.142671 0.793780 0.043120 0.123720 0.080200 15.589209 18.754310 8.551034 41.579651 2.706904 -16.196473 15.909018 62.647824 4.824550 1.832739 -1.481319 -0.270240 0.120530 0.005510 -0.389040 
4.209280 15.948970 -3.813930 1.779074 -7.269307 -4.426351 -15.315311 13.342930 3.088408 -2.901168 2.944105 11.473701 -9.054078 12.350363 31.330666 0.619682 8.309151 1.937639 0.245810 -0.226230 0.452130 18.411030 -8.303595 4.974557 6.824672 13.627276 -42.271979 7.213326 -7.805526 38.581290 -0.620659 -4.746742 2.734232 -0.157830 0.048280 0.274100 -3.531939 -4.294793 -8.755144 21.415365 -11.105099 22.217484 -8.837786 -6.680322 1.405156 7.438031 -1.281271 -13.305500 -4.736243 6.581427 37.115856 -15.432770 11.736290 -16.412700 -30.800081 -19.484916 8.212611 -35.593377 0.489472 -5.695815 -40.599199 -28.212418 5.804018 -3.403739 3.092219 0.828290 0.031710 0.145160 0.063520 15.214271 19.933638 8.771621 40.632071 3.113780 -16.153494 13.847805 60.818215 3.865014 1.825976 -1.400414 -0.280460 0.136000 0.019920 -0.404590 
4.216330 15.983130 -3.649560 0.804955 -7.954714 -4.393490 -15.323259 13.461597 3.087356 -1.695969 2.520621 11.701515 -9.671954 12.869757 32.026379 0.702580 8.499162 1.856222 0.232560 -0.227550 0.450230 18.384076 -8.298242 4.910471 7.021192 13.447889 -41.049824 8.435190 -8.439096 38.401799 -0.669280 -4.850052 2.698585 -0.190530 0.005870 0.303940 -3.474236 -4.518183 -8.757913 23.238249 -11.841144 22.676128 -9.387442 -6.792265 0.656710 8.043408 -0.444004 -13.611105 -3.289804 6.554558 38.109219 -17.230090 12.916040 -17.423120 -32.018395 -19.950581 8.588667 -34.735390 1.552388 -5.791384 -39.813102 -26.872595 5.165225 -3.366772 3.116336 0.831360 0.021210 0.184640 0.047500 15.024272 20.019721 8.854230 41.102573 2.849564 -16.365062 12.847670 60.058544 3.379387 1.840449 -1.377468 -0.239600 0.090280 0.022670 -0.404470 
4.206730 16.035060 -3.459450 0.621954 -8.074314 -4.406450 -15.360192 13.653028 3.136644 -0.831272 2.130994 12.063044 -9.949599 13.419451 33.366897 0.773145 8.787259 1.753269 0.217370 -0.253440 0.456710 18.319761 -8.309963 4.757317 6.666971 12.705271 -39.747692 9.228566 -8.820494 37.724018 -0.670871 -4.822460 2.714284 -0.218290 -0.022600 0.300790 -3.323885 -4.909970 -8.757183 23.693904 -12.217113 22.882547 -9.090632 -6.957948 -0.152758 8.468858 -0.374669 -13.869845 -3.389539 6.705001 39.013046 -18.123100 13.407520 -18.059330 -32.407271 -19.575260 8.539337 -35.169688 2.549692 -5.965010 -39.528835 -25.418729 4.508668 -3.347498 3.091095 0.855810 0.001400 0.198750 0.028230 14.579677 19.710143 9.167037 41.700750 1.516322 -16.345416 17.449062 59.844970 5.553843 1.878460 -1.381998 -0.236950 0.077730 0.032370 -0.419880 
4.190470 16.120620 -3.278950 0.475454 -8.606087 -4.561292 -15.404673 13.942935 3.194171 0.166203 1.379058 10.841250 -10.324514 14.050625 35.404511 0.856160 9.048009 1.655961 0.246170 -0.223820 0.477560 18.224909 -8.369891 4.530925 6.321640 11.658319 -37.042394 10.717982 -9.088722 35.620732 -0.681887 -4.588557 2.800985 -0.234150 -0.082900 0.295340 -3.110126 -5.446511 -8.752351 23.846009 -12.473938 24.100310 -8.419404 -6.683983 -1.767176 8.798198 -1.034706 -14.199690 -5.146152 6.898575 40.849662 -18.438650 12.862050 -20.329170 -32.569008 -18.632997 8.165292 -37.060120 3.348967 -6.303184 -38.088889 -23.788890 3.594816 -3.283225 3.042898 0.910130 -0.069630 0.259870 0.036530 14.297644 19.587609 9.614351 42.080461 -0.113592 -16.191691 23.367983 59.040436 8.293161 1.948629 -1.371674 -0.210250 0.077580 0.007020 -0.415750 
4.167250 16.192910 -3.115680 0.476077 -9.386215 -3.733097 -15.422564 14.058867 3.200991 0.892527 0.450900 8.207591 -10.574325 15.040908 39.203376 0.966094 9.520138 1.475604 0.261530 -0.197850 0.469520 18.179652 -8.429474 4.398183 6.298452 11.081034 -35.279314 11.449717 -8.944704 33.570084 -0.651894 -4.331445 2.889075 -0.237690 -0.111530 0.312910 -3.006519 -5.630887 -8.728366 23.720875 -12.271965 24.543430 -7.672484 -6.246780 -3.158418 8.794503 -1.336051 -13.868221 -5.574825 7.219465 40.260503 -18.387960 13.092910 -21.764050 -32.782653 -17.388787 7.565294 -38.795474 3.598922 -6.354141 -36.143209 -21.699877 2.639180 -3.285997 3.048679 0.916540 -0.089370 0.281480 0.038940 14.713395 18.682094 9.404559 42.302326 -0.552988 -15.492679 25.833376 56.314819 9.049359 1.995955 -1.368102 -0.180060 0.043150 -0.000340 -0.409940 
4.137630 16.269550 -2.975570 1.136476 -9.490589 -2.977803 -15.460311 14.159815 3.291559 1.636065 -0.976961 4.364778 -10.934686 16.332095 44.203554 1.132816 10.213528 1.236658 0.261460 -0.186100 0.469990 18.102119 -8.519225 4.204980 5.952819 10.086716 -33.589071 11.506694 -8.448697 31.001740 -0.576426 -3.940512 3.031323 -0.245280 -0.127790 0.317230 -2.827613 -5.814772 -8.769367 21.964528 -11.721017 25.084743 -6.228953 -5.798688 -4.468712 8.729794 -0.928216 -13.667786 -4.714113 6.924114 39.947753 -18.790940 13.556550 -21.975460 -33.298239 -16.806123 7.227257 -40.009281 3.781193 -6.358368 -34.814138 -19.693015 1.901101 -3.293571 3.045931 0.902270 -0.090800 0.291240 0.040850 15.556764 18.038259 9.235869 42.942624 -1.083662 -15.127306 26.308830 53.404301 8.646131 2.039142 -1.355671 -0.161450 0.017490 -0.015800 -0.404970 
